{
	"asset":{
		"generator":"Khronos glTF Blender I/O v4.4.56",
		"version":"2.0"
	},
	"scene":0,
	"scenes":[
		{
			"name":"Scene",
			"nodes":[
				5
			]
		}
	],
	"nodes":[
		{
			"mesh":0,
			"name":"TV_CCTV_02_MI_TV_CTTV_0"
		},
		{
			"mesh":1,
			"name":"TV_CCTV_02_MI_TV_CTTV_Screen_0"
		},
		{
			"children":[
				0,
				1
			],
			"name":"TV_CCTV_02",
			"rotation":[
				-0.70710688829422,
				0,
				0,
				0.7071066498756409
			]
		},
		{
			"children":[
				2
			],
			"name":"RootNode"
		},
		{
			"children":[
				3
			],
			"name":"5bd174ec7f8b4a87a9b4fdf5c2341e39.fbx",
			"rotation":[
				0.70710688829422,
				0,
				0,
				0.7071066498756409
			],
			"scale":[
				0.009999999776482582,
				0.010000000707805157,
				0.010000000707805157
			]
		},
		{
			"children":[
				4
			],
			"name":"Sketchfab_model",
			"rotation":[
				-0.70710688829422,
				0,
				0,
				0.7071066498756409
			],
			"scale":[
				20.714311599731445,
				20.714313507080078,
				20.714313507080078
			]
		}
	],
	"materials":[
		{
			"doubleSided":true,
			"name":"MI_TV_CTTV",
			"normalTexture":{
				"index":0
			},
			"pbrMetallicRoughness":{
				"baseColorTexture":{
					"index":1
				},
				"metallicRoughnessTexture":{
					"index":2
				}
			}
		},
		{
			"alphaMode":"BLEND",
			"doubleSided":true,
			"name":"MI_TV_CTTV_Screen",
			"pbrMetallicRoughness":{
				"baseColorFactor":[
					1,
					1,
					1,
					0.2957746386528015
				],
				"baseColorTexture":{
					"index":3
				},
				"metallicFactor":0.3762191832065582,
				"metallicRoughnessTexture":{
					"index":4
				}
			}
		}
	],
	"meshes":[
		{
			"name":"TV_CCTV_02_MI_TV_CTTV_0",
			"primitives":[
				{
					"attributes":{
						"POSITION":0,
						"NORMAL":1,
						"TEXCOORD_0":2,
						"TEXCOORD_1":3,
						"TEXCOORD_2":4
					},
					"indices":5,
					"material":0
				}
			]
		},
		{
			"name":"TV_CCTV_02_MI_TV_CTTV_Screen_0",
			"primitives":[
				{
					"attributes":{
						"POSITION":6,
						"NORMAL":7,
						"TEXCOORD_0":8,
						"TEXCOORD_1":9,
						"TEXCOORD_2":10
					},
					"indices":11,
					"material":1
				}
			]
		}
	],
	"textures":[
		{
			"sampler":0,
			"source":0
		},
		{
			"sampler":0,
			"source":1
		},
		{
			"sampler":0,
			"source":2
		},
		{
			"sampler":0,
			"source":3
		},
		{
			"sampler":0,
			"source":4
		}
	],
	"images":[
		{
			"mimeType":"image/png",
			"name":"MI_TV_CTTV_normal",
			"uri":"textures/MI_TV_CTTV_normal.png"
		},
		{
			"mimeType":"image/png",
			"name":"MI_TV_CTTV_baseColor",
			"uri":"textures/MI_TV_CTTV_baseColor.png"
		},
		{
			"mimeType":"image/png",
			"name":"MI_TV_CTTV_metallicRoughness",
			"uri":"textures/MI_TV_CTTV_metallicRoughness.png"
		},
		{
			"mimeType":"image/png",
			"name":"MI_TV_CTTV_Screen_baseColor",
			"uri":"textures/MI_TV_CTTV_Screen_baseColor.png"
		},
		{
			"mimeType":"image/png",
			"name":"MI_TV_CTTV_Screen_metallicRoughness",
			"uri":"textures/MI_TV_CTTV_Screen_metallicRoughness.png"
		}
	],
	"accessors":[
		{
			"bufferView":0,
			"componentType":5126,
			"count":14298,
			"max":[
				9.013233184814453,
				19.542858123779297,
				40.11100769042969
			],
			"min":[
				-39.48067855834961,
				-19.498897552490234,
				-0.11690492182970047
			],
			"type":"VEC3"
		},
		{
			"bufferView":1,
			"componentType":5126,
			"count":14298,
			"type":"VEC3"
		},
		{
			"bufferView":2,
			"componentType":5126,
			"count":14298,
			"type":"VEC2"
		},
		{
			"bufferView":3,
			"componentType":5126,
			"count":14298,
			"type":"VEC2"
		},
		{
			"bufferView":4,
			"componentType":5126,
			"count":14298,
			"type":"VEC2"
		},
		{
			"bufferView":5,
			"componentType":5123,
			"count":38970,
			"type":"SCALAR"
		},
		{
			"bufferView":6,
			"componentType":5126,
			"count":121,
			"max":[
				7.851127624511719,
				16.816150665283203,
				37.62560272216797
			],
			"min":[
				6.0457024574279785,
				-16.616777420043945,
				9.208589553833008
			],
			"type":"VEC3"
		},
		{
			"bufferView":7,
			"componentType":5126,
			"count":121,
			"type":"VEC3"
		},
		{
			"bufferView":8,
			"componentType":5126,
			"count":121,
			"type":"VEC2"
		},
		{
			"bufferView":9,
			"componentType":5126,
			"count":121,
			"type":"VEC2"
		},
		{
			"bufferView":10,
			"componentType":5126,
			"count":121,
			"type":"VEC2"
		},
		{
			"bufferView":11,
			"componentType":5123,
			"count":600,
			"type":"SCALAR"
		}
	],
	"bufferViews":[
		{
			"buffer":0,
			"byteLength":171576,
			"byteOffset":0,
			"target":34962
		},
		{
			"buffer":0,
			"byteLength":171576,
			"byteOffset":171576,
			"target":34962
		},
		{
			"buffer":0,
			"byteLength":114384,
			"byteOffset":343152,
			"target":34962
		},
		{
			"buffer":0,
			"byteLength":114384,
			"byteOffset":457536,
			"target":34962
		},
		{
			"buffer":0,
			"byteLength":114384,
			"byteOffset":571920,
			"target":34962
		},
		{
			"buffer":0,
			"byteLength":77940,
			"byteOffset":686304,
			"target":34963
		},
		{
			"buffer":0,
			"byteLength":1452,
			"byteOffset":764244,
			"target":34962
		},
		{
			"buffer":0,
			"byteLength":1452,
			"byteOffset":765696,
			"target":34962
		},
		{
			"buffer":0,
			"byteLength":968,
			"byteOffset":767148,
			"target":34962
		},
		{
			"buffer":0,
			"byteLength":968,
			"byteOffset":768116,
			"target":34962
		},
		{
			"buffer":0,
			"byteLength":968,
			"byteOffset":769084,
			"target":34962
		},
		{
			"buffer":0,
			"byteLength":1200,
			"byteOffset":770052,
			"target":34963
		}
	],
	"samplers":[
		{
			"magFilter":9729,
			"minFilter":9987
		}
	],
	"buffers":[
		{
			"byteLength":771252,
			"uri":"monitor.bin"
		}
	]
}
