{
	"asset":{
		"generator":"Khronos glTF Blender I/O v4.4.56",
		"version":"2.0"
	},
	"extensionsUsed":[
		"KHR_materials_transmission"
	],
	"scene":0,
	"scenes":[
		{
			"name":"Scene",
			"nodes":[
				0,
				1
			]
		}
	],
	"nodes":[
		{
			"mesh":0,
			"name":"ibm_3277"
		},
		{
			"mesh":1,
			"name":"ibm_3278",
			"scale":[
				3.2075998783111572,
				3.2075998783111572,
				3.2075998783111572
			]
		}
	],
	"materials":[
		{
			"doubleSided":true,
			"name":"ibm_3277",
			"pbrMetallicRoughness":{
				"baseColorFactor":[
					0.800000011920929,
					0.800000011920929,
					0.800000011920929,
					1
				],
				"metallicFactor":0,
				"roughnessFactor":0.5
			}
		},
		{
			"doubleSided":true,
			"extensions":{
				"KHR_materials_transmission":{
					"transmissionFactor":1
				}
			},
			"name":"display",
			"pbrMetallicRoughness":{
				"baseColorFactor":[
					0.800000011920929,
					0.800000011920929,
					0.800000011920929,
					1
				],
				"metallicFactor":0,
				"roughnessFactor":0.09405940771102905
			}
		},
		{
			"doubleSided":true,
			"name":"ibm_3277_keyboard",
			"pbrMetallicRoughness":{
				"baseColorFactor":[
					0.800000011920929,
					0.800000011920929,
					0.800000011920929,
					1
				],
				"metallicFactor":0,
				"roughnessFactor":0.5
			}
		},
		{
			"doubleSided":true,
			"name":"ibm_3278",
			"pbrMetallicRoughness":{
				"baseColorTexture":{
					"index":0
				},
				"metallicFactor":0,
				"roughnessFactor":0.5
			}
		},
		{
			"doubleSided":true,
			"name":"ibm_3278_keyboard",
			"pbrMetallicRoughness":{
				"baseColorTexture":{
					"index":1
				},
				"metallicFactor":0,
				"roughnessFactor":0.5
			}
		}
	],
	"meshes":[
		{
			"name":"Cube.007",
			"primitives":[
				{
					"attributes":{
						"POSITION":0,
						"NORMAL":1,
						"TEXCOORD_0":2
					},
					"indices":3,
					"material":0
				},
				{
					"attributes":{
						"POSITION":4,
						"NORMAL":5,
						"TEXCOORD_0":6
					},
					"indices":7,
					"material":1
				},
				{
					"attributes":{
						"POSITION":8,
						"NORMAL":9,
						"TEXCOORD_0":10
					},
					"indices":11,
					"material":2
				}
			]
		},
		{
			"name":"Cube.005",
			"primitives":[
				{
					"attributes":{
						"POSITION":12,
						"NORMAL":13,
						"TEXCOORD_0":14
					},
					"indices":15,
					"material":3
				},
				{
					"attributes":{
						"POSITION":16,
						"NORMAL":17,
						"TEXCOORD_0":18
					},
					"indices":7,
					"material":1
				},
				{
					"attributes":{
						"POSITION":19,
						"NORMAL":20,
						"TEXCOORD_0":21
					},
					"indices":22,
					"material":4
				}
			]
		}
	],
	"textures":[
		{
			"sampler":0,
			"source":0
		},
		{
			"sampler":0,
			"source":1
		}
	],
	"images":[
		{
			"mimeType":"image/png",
			"name":"ibm_3278",
			"uri":"textures/ibm_3278.png"
		},
		{
			"mimeType":"image/png",
			"name":"ibm_3278_keyboard",
			"uri":"textures/ibm_3278_keyboard.png"
		}
	],
	"accessors":[
		{
			"bufferView":0,
			"componentType":5126,
			"count":1105,
			"max":[
				2.2079782485961914,
				8.10433578491211,
				3.667710065841675
			],
			"min":[
				-6.31529426574707,
				0,
				-3.667710781097412
			],
			"type":"VEC3"
		},
		{
			"bufferView":1,
			"componentType":5126,
			"count":1105,
			"type":"VEC3"
		},
		{
			"bufferView":2,
			"componentType":5126,
			"count":1105,
			"type":"VEC2"
		},
		{
			"bufferView":3,
			"componentType":5123,
			"count":3594,
			"type":"SCALAR"
		},
		{
			"bufferView":4,
			"componentType":5126,
			"count":81,
			"max":[
				1.905419111251831,
				7.412405014038086,
				2.0141801834106445
			],
			"min":[
				1.4581183195114136,
				4.58746337890625,
				-2.0141801834106445
			],
			"type":"VEC3"
		},
		{
			"bufferView":5,
			"componentType":5126,
			"count":81,
			"type":"VEC3"
		},
		{
			"bufferView":6,
			"componentType":5126,
			"count":81,
			"type":"VEC2"
		},
		{
			"bufferView":7,
			"componentType":5123,
			"count":384,
			"type":"SCALAR"
		},
		{
			"bufferView":8,
			"componentType":5126,
			"count":2145,
			"max":[
				5.555555820465088,
				1.3685084581375122,
				5.111187934875488
			],
			"min":[
				-3.432504653930664,
				0,
				-3.6363632678985596
			],
			"type":"VEC3"
		},
		{
			"bufferView":9,
			"componentType":5126,
			"count":2145,
			"type":"VEC3"
		},
		{
			"bufferView":10,
			"componentType":5126,
			"count":2145,
			"type":"VEC2"
		},
		{
			"bufferView":11,
			"componentType":5123,
			"count":5280,
			"type":"SCALAR"
		},
		{
			"bufferView":12,
			"componentType":5126,
			"count":1107,
			"max":[
				2.458543062210083,
				8.40316390991211,
				3.667710065841675
			],
			"min":[
				-6.353612899780273,
				0,
				-3.667710781097412
			],
			"type":"VEC3"
		},
		{
			"bufferView":13,
			"componentType":5126,
			"count":1107,
			"type":"VEC3"
		},
		{
			"bufferView":14,
			"componentType":5126,
			"count":1107,
			"type":"VEC2"
		},
		{
			"bufferView":15,
			"componentType":5123,
			"count":3528,
			"type":"SCALAR"
		},
		{
			"bufferView":16,
			"componentType":5126,
			"count":81,
			"max":[
				2.1857409477233887,
				7.805549144744873,
				2.669727087020874
			],
			"min":[
				1.498594045639038,
				3.474278450012207,
				-2.669727087020874
			],
			"type":"VEC3"
		},
		{
			"bufferView":17,
			"componentType":5126,
			"count":81,
			"type":"VEC3"
		},
		{
			"bufferView":18,
			"componentType":5126,
			"count":81,
			"type":"VEC2"
		},
		{
			"bufferView":19,
			"componentType":5126,
			"count":2587,
			"max":[
				5.555555820465088,
				1.5504549741744995,
				5.1111884117126465
			],
			"min":[
				-3.432504653930664,
				1.4483927657238382e-07,
				-3.6363637447357178
			],
			"type":"VEC3"
		},
		{
			"bufferView":20,
			"componentType":5126,
			"count":2587,
			"type":"VEC3"
		},
		{
			"bufferView":21,
			"componentType":5126,
			"count":2587,
			"type":"VEC2"
		},
		{
			"bufferView":22,
			"componentType":5123,
			"count":6240,
			"type":"SCALAR"
		}
	],
	"bufferViews":[
		{
			"buffer":0,
			"byteLength":13260,
			"byteOffset":0,
			"target":34962
		},
		{
			"buffer":0,
			"byteLength":13260,
			"byteOffset":13260,
			"target":34962
		},
		{
			"buffer":0,
			"byteLength":8840,
			"byteOffset":26520,
			"target":34962
		},
		{
			"buffer":0,
			"byteLength":7188,
			"byteOffset":35360,
			"target":34963
		},
		{
			"buffer":0,
			"byteLength":972,
			"byteOffset":42548,
			"target":34962
		},
		{
			"buffer":0,
			"byteLength":972,
			"byteOffset":43520,
			"target":34962
		},
		{
			"buffer":0,
			"byteLength":648,
			"byteOffset":44492,
			"target":34962
		},
		{
			"buffer":0,
			"byteLength":768,
			"byteOffset":45140,
			"target":34963
		},
		{
			"buffer":0,
			"byteLength":25740,
			"byteOffset":45908,
			"target":34962
		},
		{
			"buffer":0,
			"byteLength":25740,
			"byteOffset":71648,
			"target":34962
		},
		{
			"buffer":0,
			"byteLength":17160,
			"byteOffset":97388,
			"target":34962
		},
		{
			"buffer":0,
			"byteLength":10560,
			"byteOffset":114548,
			"target":34963
		},
		{
			"buffer":0,
			"byteLength":13284,
			"byteOffset":125108,
			"target":34962
		},
		{
			"buffer":0,
			"byteLength":13284,
			"byteOffset":138392,
			"target":34962
		},
		{
			"buffer":0,
			"byteLength":8856,
			"byteOffset":151676,
			"target":34962
		},
		{
			"buffer":0,
			"byteLength":7056,
			"byteOffset":160532,
			"target":34963
		},
		{
			"buffer":0,
			"byteLength":972,
			"byteOffset":167588,
			"target":34962
		},
		{
			"buffer":0,
			"byteLength":972,
			"byteOffset":168560,
			"target":34962
		},
		{
			"buffer":0,
			"byteLength":648,
			"byteOffset":169532,
			"target":34962
		},
		{
			"buffer":0,
			"byteLength":31044,
			"byteOffset":170180,
			"target":34962
		},
		{
			"buffer":0,
			"byteLength":31044,
			"byteOffset":201224,
			"target":34962
		},
		{
			"buffer":0,
			"byteLength":20696,
			"byteOffset":232268,
			"target":34962
		},
		{
			"buffer":0,
			"byteLength":12480,
			"byteOffset":252964,
			"target":34963
		}
	],
	"samplers":[
		{
			"magFilter":9729,
			"minFilter":9987
		}
	],
	"buffers":[
		{
			"byteLength":265444,
			"uri":"fixed_terminal.bin"
		}
	]
}
